<svg xmlns="http://www.w3.org/2000/svg" xmlns:xlink="http://www.w3.org/1999/xlink" width="250" zoomAndPan="magnify" viewBox="0 0 187.5 187.499992" height="250" preserveAspectRatio="xMidYMid meet" version="1.0"><defs><clipPath id="0c0792f34d"><path d="M 18.699219 18.699219 L 168.300781 18.699219 L 168.300781 168.300781 L 18.699219 168.300781 Z M 18.699219 18.699219 " clip-rule="nonzero"/></clipPath><clipPath id="5d455a3194"><path d="M 44.878906 18.699219 L 142.121094 18.699219 C 156.578125 18.699219 168.300781 30.421875 168.300781 44.878906 L 168.300781 142.121094 C 168.300781 156.578125 156.578125 168.300781 142.121094 168.300781 L 44.878906 168.300781 C 30.421875 168.300781 18.699219 156.578125 18.699219 142.121094 L 18.699219 44.878906 C 18.699219 30.421875 30.421875 18.699219 44.878906 18.699219 Z M 44.878906 18.699219 " clip-rule="nonzero"/></clipPath><clipPath id="a149f4dbe9"><path d="M 0.699219 0.699219 L 150.300781 0.699219 L 150.300781 150.300781 L 0.699219 150.300781 Z M 0.699219 0.699219 " clip-rule="nonzero"/></clipPath><clipPath id="19161cf39f"><path d="M 26.878906 0.699219 L 124.121094 0.699219 C 138.578125 0.699219 150.300781 12.421875 150.300781 26.878906 L 150.300781 124.121094 C 150.300781 138.578125 138.578125 150.300781 124.121094 150.300781 L 26.878906 150.300781 C 12.421875 150.300781 0.699219 138.578125 0.699219 124.121094 L 0.699219 26.878906 C 0.699219 12.421875 12.421875 0.699219 26.878906 0.699219 Z M 26.878906 0.699219 " clip-rule="nonzero"/></clipPath><clipPath id="02d170f3f8"><rect x="0" width="151" y="0" height="151"/></clipPath><clipPath id="a7c668315a"><path d="M 48.953125 97.0625 L 105.050781 97.0625 L 105.050781 153.164062 L 48.953125 153.164062 Z M 48.953125 97.0625 " clip-rule="nonzero"/></clipPath><clipPath id="053ab4fa00"><path d="M 0.953125 0.0625 L 57.050781 0.0625 L 57.050781 56.164062 L 0.953125 56.164062 Z M 0.953125 0.0625 " clip-rule="nonzero"/></clipPath><clipPath id="51bf477af3"><rect x="0" width="58" y="0" height="57"/></clipPath><clipPath id="ed2f09eb8b"><path d="M 92.421875 33.835938 L 138 33.835938 L 138 108.636719 L 92.421875 108.636719 Z M 92.421875 33.835938 " clip-rule="nonzero"/></clipPath></defs><g clip-path="url(#0c0792f34d)"><g clip-path="url(#5d455a3194)"><g transform="matrix(1, 0, 0, 1, 18, 18)"><g clip-path="url(#02d170f3f8)"><g clip-path="url(#a149f4dbe9)"><g clip-path="url(#19161cf39f)"><path fill="#ffffff" d="M 0.699219 0.699219 L 150.300781 0.699219 L 150.300781 150.300781 L 0.699219 150.300781 Z M 0.699219 0.699219 " fill-opacity="1" fill-rule="nonzero"/></g></g></g></g></g></g><g clip-path="url(#a7c668315a)"><g transform="matrix(1, 0, 0, 1, 48, 97)"><g clip-path="url(#51bf477af3)"><g clip-path="url(#053ab4fa00)"><path fill="#000000" d="M 0.953125 0.0625 L 57.050781 0.0625 L 57.050781 56.164062 L 0.953125 56.164062 Z M 0.953125 0.0625 " fill-opacity="1" fill-rule="nonzero"/></g></g></g></g><g clip-path="url(#ed2f09eb8b)"><path fill="#000000" d="M 137.8125 41.71875 L 105.34375 108.011719 C 105.105469 108.472656 104.476562 108.609375 103.972656 108.3125 L 93.054688 104.003906 C 92.617188 103.746094 92.425781 103.242188 92.601562 102.828125 L 120.246094 34.488281 C 120.433594 34.050781 120.976562 33.859375 121.480469 34.054688 L 137.222656 40.40625 C 137.78125 40.628906 138.058594 41.242188 137.8125 41.71875 Z M 137.8125 41.71875 " fill-opacity="1" fill-rule="nonzero"/></g></svg>